<?xml version="1.0" standalone="no"?>
<!DOCTYPE svg PUBLIC "-//W3C//DTD SVG 20010904//EN"
 "http://www.w3.org/TR/2001/REC-SVG-20010904/DTD/svg10.dtd">
<svg version="1.0" xmlns="http://www.w3.org/2000/svg"
 width="390.000000pt" height="390.000000pt" viewBox="0 0 390.000000 390.000000"
 preserveAspectRatio="xMidYMid meet">
<metadata>
Created by potrace 1.11, written by Peter Selinger 2001-2013
</metadata>
<g transform="translate(0.000000,390.000000) scale(0.100000,-0.100000)"
fill="#000000" stroke="none">
<path d="M3470 3115 c-14 -7 -41 -33 -60 -56 -19 -24 -60 -73 -90 -109 -30
-36 -66 -81 -80 -99 -14 -18 -45 -58 -70 -89 -25 -31 -134 -171 -243 -312
-233 -300 -212 -274 -260 -333 -21 -26 -35 -47 -32 -47 4 0 -2 -8 -13 -17 -11
-10 -95 -117 -188 -238 -169 -222 -188 -245 -198 -245 -5 0 -2 42 10 114 3 21
8 53 10 70 3 31 9 78 19 151 3 22 7 69 10 105 3 36 8 94 11 130 10 105 12 431
2 500 -4 35 -10 81 -13 102 -14 112 -65 239 -117 291 -43 44 -89 61 -157 59
-67 -2 -96 -24 -86 -65 4 -15 11 -27 15 -27 11 0 90 -126 90 -144 0 -8 4 -17
8 -20 5 -3 15 -31 22 -63 35 -149 39 -182 40 -383 2 -150 -4 -283 -15 -365 -3
-22 -7 -60 -9 -85 -2 -25 -9 -81 -15 -125 -6 -44 -13 -98 -16 -120 -3 -22 -12
-78 -20 -125 -31 -177 -33 -220 -9 -237 36 -26 157 -8 189 27 9 10 18 41 22
69 6 53 18 70 196 291 49 61 114 143 215 270 46 58 91 114 100 125 91 109 140
174 135 179 -4 3 -2 6 4 6 5 0 32 28 59 63 26 34 51 64 54 67 3 3 39 48 80
100 41 52 77 97 80 100 3 3 75 93 160 200 85 107 157 197 160 200 18 15 47 67
47 83 0 20 -13 21 -47 2z"/>
<path d="M1242 3088 c-105 -12 -194 -75 -246 -175 -49 -95 -62 -276 -28 -393
39 -134 76 -186 277 -386 212 -210 250 -282 248 -464 -2 -181 -91 -303 -223
-302 -145 2 -275 145 -296 326 -7 54 -10 63 -21 53 -12 -13 -9 -387 3 -387 7
0 15 20 18 44 4 24 16 52 27 62 19 17 20 16 45 -14 119 -144 365 -153 499 -18
166 167 170 477 10 692 -21 27 -97 108 -171 181 -212 209 -257 291 -258 468
-1 150 37 234 127 275 58 26 158 7 218 -42 59 -49 111 -152 124 -243 18 -126
30 -73 30 126 -1 126 -4 174 -13 177 -7 2 -12 -5 -12 -16 0 -20 -36 -72 -50
-72 -4 0 -28 16 -52 36 -75 63 -150 85 -256 72z"/>
<path d="M652 1001 c-75 -39 -111 -153 -67 -213 32 -42 103 -52 143 -19 30 26
28 37 -3 17 -36 -24 -96 -21 -120 7 -47 53 -9 174 63 198 35 12 82 5 94 -14 4
-6 10 -8 14 -4 13 13 -22 39 -57 42 -19 2 -49 -5 -67 -14z"/>
<path d="M1149 1018 c-2 -7 -7 -37 -13 -72 -4 -21 -8 -48 -11 -60 -2 -12 -7
-39 -10 -61 -3 -22 -8 -48 -11 -57 -3 -10 -1 -18 5 -18 6 0 11 7 11 17 0 15 2
14 20 -2 23 -21 78 -14 103 13 62 69 27 161 -56 145 -15 -3 -27 -9 -27 -14 0
-5 -5 -9 -11 -9 -5 0 -8 4 -5 9 8 13 19 111 12 111 -3 0 -6 -1 -7 -2z m92
-129 c43 -43 -1 -123 -64 -117 -75 7 -47 133 31 137 6 1 21 -8 33 -20z"/>
<path d="M1655 983 c-4 -21 -9 -51 -12 -68 -3 -16 -10 -61 -17 -98 -9 -44 -9
-66 -3 -64 6 2 11 12 12 23 1 10 7 46 13 79 6 33 13 76 16 96 3 20 8 43 12 52
3 10 2 17 -4 17 -5 0 -13 -17 -17 -37z"/>
<path d="M2030 1006 c0 -9 5 -16 10 -16 6 0 10 4 10 9 0 6 -4 13 -10 16 -5 3
-10 -1 -10 -9z"/>
<path d="M2557 1005 c-4 -8 -2 -17 3 -20 6 -4 10 3 10 14 0 25 -6 27 -13 6z"/>
<path d="M925 921 c-33 -14 -56 -47 -62 -89 -9 -64 43 -101 99 -71 15 8 22 8
28 -1 12 -19 20 2 25 69 4 55 2 62 -22 81 -28 22 -37 23 -68 11z m52 -19 c23
-15 31 -55 17 -84 -26 -51 -83 -64 -109 -24 -35 53 40 141 92 108z"/>
<path d="M1428 915 c-53 -29 -72 -106 -36 -145 27 -29 98 -23 98 8 0 12 -3 13
-12 4 -7 -7 -24 -12 -38 -12 -14 0 -31 5 -38 12 -13 13 -17 49 -4 47 4 -1 35
-1 70 0 61 1 62 2 62 29 -1 56 -52 84 -102 57z m79 -35 c12 -24 12 -25 -30
-30 -23 -3 -52 -3 -64 -1 -21 3 -21 5 -7 26 27 41 82 44 101 5z"/>
<path d="M1811 919 c-85 -34 -86 -169 -1 -169 32 0 68 24 52 34 -7 4 -12 2
-12 -3 0 -19 -56 -12 -75 9 -26 29 -11 38 65 42 l65 3 -3 30 c-3 30 -34 66
-56 64 -6 0 -22 -5 -35 -10z m65 -34 c9 -14 14 -28 11 -31 -5 -5 -67 -8 -104
-5 -23 2 -14 30 15 45 39 22 59 19 78 -9z"/>
<path d="M2019 923 c-1 -11 -5 -33 -18 -93 -6 -28 -11 -58 -11 -65 0 -18 16
-20 17 -2 1 22 13 91 22 130 5 22 5 37 0 37 -5 0 -9 -3 -10 -7z"/>
<path d="M2129 913 c0 -10 -2 -25 -4 -33 -12 -56 -21 -130 -15 -130 4 0 11 15
14 33 3 17 8 43 11 57 2 14 21 40 42 57 37 32 35 47 -3 18 -25 -19 -35 -19
-28 0 4 8 1 15 -5 15 -6 0 -11 -8 -12 -17z"/>
<path d="M2340 923 c-28 -10 -49 -35 -61 -70 -22 -68 12 -111 77 -98 22 4 34
12 34 22 0 13 -3 14 -12 5 -18 -18 -75 -15 -82 4 -11 28 -6 45 12 43 9 -1 41
-1 70 0 50 1 52 2 52 29 0 15 -6 35 -13 44 -15 19 -54 30 -77 21z m51 -23 c10
-6 19 -21 19 -33 0 -21 -4 -22 -57 -19 -31 1 -59 4 -60 6 -2 2 7 15 19 30 25
27 48 32 79 16z"/>
<path d="M2535 878 c-4 -29 -9 -66 -11 -81 -2 -16 -6 -33 -9 -38 -4 -5 -2 -9
4 -9 11 0 17 17 26 85 13 87 13 95 5 95 -4 0 -11 -24 -15 -52z"/>
<path d="M2659 918 c0 -7 -2 -20 -4 -28 -3 -16 -13 -68 -21 -112 -2 -16 0 -28
5 -28 5 0 13 24 16 54 7 56 28 89 65 101 11 4 18 11 15 16 -4 5 -19 2 -37 -7
-16 -9 -27 -11 -24 -6 4 6 2 13 -4 17 -5 3 -10 0 -11 -7z"/>
<path d="M2866 923 c-45 -12 -80 -80 -64 -125 18 -51 68 -63 111 -25 50 43 57
112 14 142 -22 15 -28 16 -61 8z m56 -30 c25 -23 23 -65 -7 -97 -31 -33 -69
-34 -91 -1 -40 61 44 147 98 98z"/>
<path d="M3080 910 c-25 -25 -21 -62 8 -75 46 -21 37 -65 -14 -65 -19 0 -34
-4 -34 -10 0 -15 53 -12 74 3 20 14 26 69 9 74 -53 18 -55 73 -3 73 16 0 32 5
35 10 12 19 -55 10 -75 -10z"/>
</g>
</svg>
